<mxfile host="app.diagrams.net" modified="2024-03-21T06:34:58.638Z" agent="Mozilla/5.0 (Macintosh; Intel Mac OS X 10_15_7) AppleWebKit/537.36 (KHTML, like Gecko) Chrome/122.0.0.0 Safari/537.36" version="23.0.2" etag="wCgDsNWByFYN3SktPZJx" type="github">
  <diagram name="第 1 页" id="vfo-syrpTsqt0YyYmmiF">
    <mxGraphModel>
      <root>
        <mxCell id="0" />
        <mxCell id="1" parent="0" />
      </root>
    </mxGraphModel>
  </diagram>
</mxfile>
